<svg xmlns="http://www.w3.org/2000/svg" viewBox="0 0 500 800" fill="none">
  <defs>
    <linearGradient id="mapGradient" x1="0%" y1="0%" x2="100%" y2="100%">
      <stop offset="0%" style="stop-color:hsl(142 71% 45% / 0.15)"/>
      <stop offset="100%" style="stop-color:hsl(142 71% 45% / 0.05)"/>
    </linearGradient>
    <filter id="glow">
      <feGaussianBlur stdDeviation="2" result="coloredBlur"/>
      <feMerge>
        <feMergeNode in="coloredBlur"/>
        <feMergeNode in="SourceGraphic"/>
      </feMerge>
    </filter>
  </defs>
  
  <!-- Main Italy Shape -->
  <g stroke="hsl(142 71% 45% / 0.4)" stroke-width="1" fill="url(#mapGradient)" filter="url(#glow)">
    <!-- Valle d'Aosta -->
    <path d="M85 105 L95 95 L115 95 L130 105 L130 120 L115 135 L95 130 L85 120 Z"/>
    
    <!-- Piemonte -->
    <path d="M85 120 L95 130 L115 135 L130 120 L155 125 L175 155 L165 185 L140 200 L105 210 L90 195 L85 165 L75 140 Z"/>
    
    <!-- Lombardia -->
    <path d="M155 125 L175 110 L210 100 L240 105 L265 115 L270 140 L255 165 L225 175 L195 170 L175 155 Z"/>
    
    <!-- Trentino-Alto Adige -->
    <path d="M240 60 L275 55 L305 70 L310 95 L290 115 L265 115 L240 105 L235 80 Z"/>
    
    <!-- Veneto -->
    <path d="M265 115 L290 115 L310 95 L340 100 L360 130 L350 160 L320 175 L285 175 L270 160 L270 140 Z"/>
    
    <!-- Friuli-Venezia Giulia -->
    <path d="M340 100 L375 95 L400 110 L405 140 L385 160 L350 160 L360 130 Z"/>
    
    <!-- Liguria -->
    <path d="M105 210 L140 200 L165 215 L175 235 L160 255 L120 260 L95 245 L90 225 Z"/>
    
    <!-- Emilia-Romagna -->
    <path d="M175 155 L195 170 L225 175 L255 165 L285 175 L320 175 L345 200 L335 235 L285 245 L235 240 L195 235 L175 220 L175 195 Z"/>
    
    <!-- Toscana -->
    <path d="M175 235 L195 235 L235 240 L265 255 L280 290 L265 330 L225 350 L190 340 L170 310 L160 270 L160 255 Z"/>
    
    <!-- Umbria -->
    <path d="M265 290 L295 280 L320 300 L315 345 L285 360 L265 355 L255 330 L265 300 Z"/>
    
    <!-- Marche -->
    <path d="M295 260 L330 255 L360 280 L355 315 L330 340 L305 335 L295 305 L295 280 Z"/>
    
    <!-- Lazio -->
    <path d="M225 350 L265 355 L285 360 L305 380 L300 420 L265 435 L235 420 L215 385 L215 365 Z"/>
    
    <!-- Abruzzo -->
    <path d="M305 335 L330 340 L360 335 L375 360 L365 395 L335 400 L310 385 L305 355 Z"/>
    
    <!-- Molise -->
    <path d="M335 400 L365 395 L385 415 L380 440 L355 445 L340 430 Z"/>
    
    <!-- Campania -->
    <path d="M300 420 L340 430 L355 445 L370 475 L355 510 L320 520 L295 495 L290 455 Z"/>
    
    <!-- Puglia -->
    <path d="M380 380 L420 375 L455 410 L470 455 L455 500 L415 515 L380 490 L370 450 L380 415 Z"/>
    
    <!-- Basilicata -->
    <path d="M355 475 L380 470 L395 505 L380 545 L350 550 L335 520 Z"/>
    
    <!-- Calabria -->
    <path d="M335 550 L350 550 L380 545 L390 580 L385 630 L365 680 L345 700 L330 670 L325 620 L330 575 Z"/>
    
    <!-- Sicilia -->
    <path d="M240 680 L280 665 L330 670 L365 700 L360 730 L320 760 L260 755 L220 730 L215 700 Z"/>
    
    <!-- Sardegna -->
    <path d="M55 380 L90 365 L130 385 L145 430 L140 490 L115 540 L75 545 L50 505 L45 450 L50 405 Z"/>
  </g>
  
  <!-- Region borders for clarity -->
  <g stroke="hsl(0 0% 100% / 0.3)" stroke-width="0.5" fill="none">
    <path d="M85 105 L95 95 L115 95 L130 105 L130 120 L115 135 L95 130 L85 120 Z"/>
    <path d="M85 120 L95 130 L115 135 L130 120 L155 125 L175 155 L165 185 L140 200 L105 210 L90 195 L85 165 L75 140 Z"/>
    <path d="M155 125 L175 110 L210 100 L240 105 L265 115 L270 140 L255 165 L225 175 L195 170 L175 155 Z"/>
    <path d="M240 60 L275 55 L305 70 L310 95 L290 115 L265 115 L240 105 L235 80 Z"/>
    <path d="M265 115 L290 115 L310 95 L340 100 L360 130 L350 160 L320 175 L285 175 L270 160 L270 140 Z"/>
    <path d="M340 100 L375 95 L400 110 L405 140 L385 160 L350 160 L360 130 Z"/>
    <path d="M105 210 L140 200 L165 215 L175 235 L160 255 L120 260 L95 245 L90 225 Z"/>
    <path d="M175 155 L195 170 L225 175 L255 165 L285 175 L320 175 L345 200 L335 235 L285 245 L235 240 L195 235 L175 220 L175 195 Z"/>
    <path d="M175 235 L195 235 L235 240 L265 255 L280 290 L265 330 L225 350 L190 340 L170 310 L160 270 L160 255 Z"/>
    <path d="M265 290 L295 280 L320 300 L315 345 L285 360 L265 355 L255 330 L265 300 Z"/>
    <path d="M295 260 L330 255 L360 280 L355 315 L330 340 L305 335 L295 305 L295 280 Z"/>
    <path d="M225 350 L265 355 L285 360 L305 380 L300 420 L265 435 L235 420 L215 385 L215 365 Z"/>
    <path d="M305 335 L330 340 L360 335 L375 360 L365 395 L335 400 L310 385 L305 355 Z"/>
    <path d="M335 400 L365 395 L385 415 L380 440 L355 445 L340 430 Z"/>
    <path d="M300 420 L340 430 L355 445 L370 475 L355 510 L320 520 L295 495 L290 455 Z"/>
    <path d="M380 380 L420 375 L455 410 L470 455 L455 500 L415 515 L380 490 L370 450 L380 415 Z"/>
    <path d="M355 475 L380 470 L395 505 L380 545 L350 550 L335 520 Z"/>
    <path d="M335 550 L350 550 L380 545 L390 580 L385 630 L365 680 L345 700 L330 670 L325 620 L330 575 Z"/>
    <path d="M240 680 L280 665 L330 670 L365 700 L360 730 L320 760 L260 755 L220 730 L215 700 Z"/>
    <path d="M55 380 L90 365 L130 385 L145 430 L140 490 L115 540 L75 545 L50 505 L45 450 L50 405 Z"/>
  </g>
</svg>